<?xml version="1.0" encoding="UTF-8" standalone="no"?>
<!DOCTYPE svg PUBLIC "-//W3C//DTD SVG 1.1//EN"
 "http://www.w3.org/Graphics/SVG/1.1/DTD/svg11.dtd">
<!-- Generated by graphviz version 2.38.0 (20140413.2041)
 -->
<!-- Title: G Pages: 1 -->
<svg width="1316pt" height="152pt"
 viewBox="0.00 0.00 1315.96 152.00" xmlns="http://www.w3.org/2000/svg" xmlns:xlink="http://www.w3.org/1999/xlink">
<g id="graph0" class="graph" transform="scale(1 1) rotate(0) translate(4 148)">
<title>G</title>
<polygon fill="white" stroke="none" points="-4,4 -4,-148 1311.96,-148 1311.96,4 -4,4"/>
<!-- Common.Extensions -->
<g id="node1" class="node"><title>Common.Extensions</title>
<polygon fill="gold" stroke="gold" points="657.963,-144 523.963,-144 523.963,-108 657.963,-108 657.963,-144"/>
<text text-anchor="middle" x="590.963" y="-122.3" font-family="Times New Roman,serif" font-size="14.00">Common.Extensions</text>
</g>
<!-- Common.Models -->
<g id="node2" class="node"><title>Common.Models</title>
<polygon fill="gold" stroke="gold" points="1141.46,-117 1026.46,-117 1026.46,-81 1141.46,-81 1141.46,-117"/>
<text text-anchor="middle" x="1083.96" y="-95.3" font-family="Times New Roman,serif" font-size="14.00">Common.Models</text>
</g>
<!-- Common.Extensions&#45;&gt;Common.Models -->
<g id="edge1" class="edge"><title>Common.Extensions&#45;&gt;Common.Models</title>
<path fill="none" stroke="black" d="M658.182,-122.359C751.786,-117.211 921.847,-107.86 1015.91,-102.687"/>
<polygon fill="black" stroke="black" points="1016.36,-106.168 1026.16,-102.124 1015.98,-99.1783 1016.36,-106.168"/>
</g>
<!-- Common.Interfaces -->
<g id="node3" class="node"><title>Common.Interfaces</title>
<polygon fill="gold" stroke="gold" points="1307.96,-90 1179.96,-90 1179.96,-54 1307.96,-54 1307.96,-90"/>
<text text-anchor="middle" x="1243.96" y="-68.3" font-family="Times New Roman,serif" font-size="14.00">Common.Interfaces</text>
</g>
<!-- Common.Models&#45;&gt;Common.Interfaces -->
<g id="edge2" class="edge"><title>Common.Models&#45;&gt;Common.Interfaces</title>
<path fill="none" stroke="black" d="M1141.56,-89.3286C1150.76,-87.7564 1160.4,-86.1086 1169.93,-84.4807"/>
<polygon fill="black" stroke="black" points="1170.52,-87.9299 1179.79,-82.7954 1169.34,-81.0299 1170.52,-87.9299"/>
</g>
<!-- Infrastructure.Interfaces -->
<g id="node4" class="node"><title>Infrastructure.Interfaces</title>
<polygon fill="gold" stroke="gold" points="843.963,-36 693.963,-36 693.963,-0 843.963,-0 843.963,-36"/>
<text text-anchor="middle" x="768.963" y="-14.3" font-family="Times New Roman,serif" font-size="14.00">Infrastructure.Interfaces</text>
</g>
<!-- Order.Interfaces -->
<g id="node5" class="node"><title>Order.Interfaces</title>
<polygon fill="gold" stroke="gold" points="987.963,-38 879.963,-38 879.963,-2 987.963,-2 987.963,-38"/>
<text text-anchor="middle" x="933.963" y="-16.3" font-family="Times New Roman,serif" font-size="14.00">Order.Interfaces</text>
</g>
<!-- Infrastructure.Interfaces&#45;&gt;Order.Interfaces -->
<g id="edge3" class="edge"><title>Infrastructure.Interfaces&#45;&gt;Order.Interfaces</title>
<path fill="none" stroke="black" d="M844.308,-18.9122C852.691,-19.0151 861.177,-19.1192 869.405,-19.2201"/>
<polygon fill="black" stroke="black" points="869.621,-22.723 879.663,-19.346 869.707,-15.7235 869.621,-22.723"/>
</g>
<!-- Product.Interfaces -->
<g id="node8" class="node"><title>Product.Interfaces</title>
<polygon fill="gold" stroke="gold" points="1143.96,-63 1023.96,-63 1023.96,-27 1143.96,-27 1143.96,-63"/>
<text text-anchor="middle" x="1083.96" y="-41.3" font-family="Times New Roman,serif" font-size="14.00">Product.Interfaces</text>
</g>
<!-- Order.Interfaces&#45;&gt;Product.Interfaces -->
<g id="edge5" class="edge"><title>Order.Interfaces&#45;&gt;Product.Interfaces</title>
<path fill="none" stroke="black" d="M987.976,-28.955C996.323,-30.3648 1005.06,-31.8402 1013.7,-33.301"/>
<polygon fill="black" stroke="black" points="1013.34,-36.7897 1023.79,-35.0043 1014.51,-29.8875 1013.34,-36.7897"/>
</g>
<!-- Order.Extensions -->
<g id="node6" class="node"><title>Order.Extensions</title>
<polygon fill="gold" stroke="gold" points="647.963,-90 533.963,-90 533.963,-54 647.963,-54 647.963,-90"/>
<text text-anchor="middle" x="590.963" y="-68.3" font-family="Times New Roman,serif" font-size="14.00">Order.Extensions</text>
</g>
<!-- Order.Models -->
<g id="node7" class="node"><title>Order.Models</title>
<polygon fill="gold" stroke="gold" points="816.463,-90 721.463,-90 721.463,-54 816.463,-54 816.463,-90"/>
<text text-anchor="middle" x="768.963" y="-68.3" font-family="Times New Roman,serif" font-size="14.00">Order.Models</text>
</g>
<!-- Order.Extensions&#45;&gt;Order.Models -->
<g id="edge4" class="edge"><title>Order.Extensions&#45;&gt;Order.Models</title>
<path fill="none" stroke="black" d="M648.134,-72C668.359,-72 691.175,-72 711.43,-72"/>
<polygon fill="black" stroke="black" points="711.452,-75.5001 721.452,-72 711.452,-68.5001 711.452,-75.5001"/>
</g>
<!-- Order.Models&#45;&gt;Order.Interfaces -->
<g id="edge6" class="edge"><title>Order.Models&#45;&gt;Order.Interfaces</title>
<path fill="none" stroke="black" d="M816.672,-57.0989C833.341,-51.7812 852.4,-45.701 870.199,-40.0229"/>
<polygon fill="black" stroke="black" points="871.471,-43.2909 879.934,-36.9172 869.344,-36.6221 871.471,-43.2909"/>
</g>
<!-- Product.Models -->
<g id="node9" class="node"><title>Product.Models</title>
<polygon fill="gold" stroke="gold" points="987.463,-92 880.463,-92 880.463,-56 987.463,-56 987.463,-92"/>
<text text-anchor="middle" x="933.963" y="-70.3" font-family="Times New Roman,serif" font-size="14.00">Product.Models</text>
</g>
<!-- Order.Models&#45;&gt;Product.Models -->
<g id="edge7" class="edge"><title>Order.Models&#45;&gt;Product.Models</title>
<path fill="none" stroke="black" d="M816.672,-72.5731C833.265,-72.7767 852.227,-73.0094 869.956,-73.2269"/>
<polygon fill="black" stroke="black" points="870.183,-76.7299 880.225,-73.3529 870.269,-69.7304 870.183,-76.7299"/>
</g>
<!-- Product.Interfaces&#45;&gt;Common.Interfaces -->
<g id="edge8" class="edge"><title>Product.Interfaces&#45;&gt;Common.Interfaces</title>
<path fill="none" stroke="black" d="M1144.25,-55.1306C1152.62,-56.561 1161.3,-58.0454 1169.89,-59.5136"/>
<polygon fill="black" stroke="black" points="1169.47,-62.9911 1179.91,-61.2257 1170.65,-56.0912 1169.47,-62.9911"/>
</g>
<!-- Product.Models&#45;&gt;Common.Models -->
<g id="edge9" class="edge"><title>Product.Models&#45;&gt;Common.Models</title>
<path fill="none" stroke="black" d="M987.559,-82.8845C996.87,-84.4573 1006.68,-86.1137 1016.31,-87.7418"/>
<polygon fill="black" stroke="black" points="1015.83,-91.2089 1026.27,-89.4234 1016.99,-84.3066 1015.83,-91.2089"/>
</g>
<!-- Product.Models&#45;&gt;Product.Interfaces -->
<g id="edge10" class="edge"><title>Product.Models&#45;&gt;Product.Interfaces</title>
<path fill="none" stroke="black" d="M987.559,-63.694C996.071,-62.0262 1005,-60.2774 1013.83,-58.5467"/>
<polygon fill="black" stroke="black" points="1014.59,-61.9635 1023.73,-56.6058 1013.25,-55.0941 1014.59,-61.9635"/>
</g>
<!-- Repositories -->
<g id="node10" class="node"><title>Repositories</title>
<polygon fill="tomato" stroke="tomato" points="634.463,-36 547.463,-36 547.463,-0 634.463,-0 634.463,-36"/>
<text text-anchor="middle" x="590.963" y="-14.3" font-family="Times New Roman,serif" font-size="14.00">Repositories</text>
</g>
<!-- Repositories&#45;&gt;Infrastructure.Interfaces -->
<g id="edge11" class="edge"><title>Repositories&#45;&gt;Infrastructure.Interfaces</title>
<path fill="none" stroke="black" d="M634.568,-18C649.45,-18 666.718,-18 683.794,-18"/>
<polygon fill="black" stroke="black" points="683.805,-21.5001 693.805,-18 683.805,-14.5001 683.805,-21.5001"/>
</g>
<!-- Repositories&#45;&gt;Order.Models -->
<g id="edge12" class="edge"><title>Repositories&#45;&gt;Order.Models</title>
<path fill="none" stroke="black" d="M634.568,-31.0719C657.739,-38.1813 686.693,-47.0649 711.699,-54.7373"/>
<polygon fill="black" stroke="black" points="710.839,-58.1344 721.426,-57.7216 712.893,-51.4423 710.839,-58.1344"/>
</g>
<!-- Repositories.Tests -->
<g id="node11" class="node"><title>Repositories.Tests</title>
<ellipse fill="tomato" stroke="tomato" cx="408.67" cy="-110" rx="79.0865" ry="18"/>
<text text-anchor="middle" x="408.67" y="-106.3" font-family="Times New Roman,serif" font-size="14.00">Repositories.Tests</text>
</g>
<!-- Repositories.Tests&#45;&gt;Common.Extensions -->
<g id="edge13" class="edge"><title>Repositories.Tests&#45;&gt;Common.Extensions</title>
<path fill="none" stroke="black" d="M482.742,-116.485C492.918,-117.388 503.395,-118.318 513.629,-119.226"/>
<polygon fill="black" stroke="black" points="513.492,-122.727 523.762,-120.125 514.111,-115.755 513.492,-122.727"/>
</g>
<!-- Repositories.Tests&#45;&gt;Repositories -->
<g id="edge14" class="edge"><title>Repositories.Tests&#45;&gt;Repositories</title>
<path fill="none" stroke="black" stroke-dasharray="5,2" d="M437.311,-92.9453C460.129,-79.1931 493.582,-59.7772 523.963,-45 528.508,-42.7891 533.283,-40.5967 538.097,-38.4731"/>
<polygon fill="black" stroke="black" points="539.555,-41.6562 547.356,-34.4872 536.787,-35.2266 539.555,-41.6562"/>
</g>
<!-- Tools -->
<g id="node12" class="node"><title>Tools</title>
<ellipse fill="plum" stroke="plum" cx="408.67" cy="-18" rx="32.4942" ry="18"/>
<text text-anchor="middle" x="408.67" y="-14.3" font-family="Times New Roman,serif" font-size="14.00">Tools</text>
</g>
<!-- Tools&#45;&gt;Repositories -->
<g id="edge15" class="edge"><title>Tools&#45;&gt;Repositories</title>
<path fill="none" stroke="black" d="M441.488,-18C467.918,-18 506.07,-18 537.082,-18"/>
<polygon fill="black" stroke="black" points="537.298,-21.5001 547.298,-18 537.298,-14.5001 537.298,-21.5001"/>
</g>
<!-- Tools.Extensions -->
<g id="node13" class="node"><title>Tools.Extensions</title>
<ellipse fill="plum" stroke="plum" cx="219.284" cy="-64" rx="74.187" ry="18"/>
<text text-anchor="middle" x="219.284" y="-60.3" font-family="Times New Roman,serif" font-size="14.00">Tools.Extensions</text>
</g>
<!-- Tools.Extensions&#45;&gt;Order.Extensions -->
<g id="edge16" class="edge"><title>Tools.Extensions&#45;&gt;Order.Extensions</title>
<path fill="none" stroke="black" d="M293.32,-65.5805C360.332,-67.0307 458.747,-69.1604 523.574,-70.5633"/>
<polygon fill="black" stroke="black" points="523.607,-74.0647 533.68,-70.782 523.758,-67.0664 523.607,-74.0647"/>
</g>
<!-- Tools.Extensions&#45;&gt;Tools -->
<g id="edge17" class="edge"><title>Tools.Extensions&#45;&gt;Tools</title>
<path fill="none" stroke="black" stroke-dasharray="5,2" d="M271.984,-51.3085C302.569,-43.8005 340.681,-34.4447 368.719,-27.5618"/>
<polygon fill="black" stroke="black" points="369.683,-30.9291 378.561,-25.1459 368.014,-24.1309 369.683,-30.9291"/>
</g>
<!-- Tools.Tests -->
<g id="node14" class="node"><title>Tools.Tests</title>
<ellipse fill="plum" stroke="plum" cx="54.5952" cy="-64" rx="54.6905" ry="18"/>
<text text-anchor="middle" x="54.5952" y="-60.3" font-family="Times New Roman,serif" font-size="14.00">Tools.Tests</text>
</g>
<!-- Tools.Tests&#45;&gt;Common.Extensions -->
<g id="edge18" class="edge"><title>Tools.Tests&#45;&gt;Common.Extensions</title>
<path fill="none" stroke="black" d="M94.7284,-76.2372C110.373,-81.0131 128.588,-86.428 145.19,-91 226.537,-113.401 245.633,-126.701 329.377,-137 399.333,-145.603 417.582,-140.784 487.963,-137 496.336,-136.55 505.079,-135.893 513.773,-135.121"/>
<polygon fill="black" stroke="black" points="514.301,-138.587 523.931,-134.168 513.647,-131.618 514.301,-138.587"/>
</g>
<!-- Tools.Tests&#45;&gt;Tools -->
<g id="edge19" class="edge"><title>Tools.Tests&#45;&gt;Tools</title>
<path fill="none" stroke="black" stroke-dasharray="5,2" d="M92.6322,-50.8354C108.603,-45.684 127.617,-40.2429 145.19,-37 222.113,-22.8052 313.543,-19.0987 365.673,-18.2007"/>
<polygon fill="black" stroke="black" points="365.922,-21.6975 375.87,-18.0525 365.82,-14.6983 365.922,-21.6975"/>
</g>
<!-- Tools.Tests&#45;&gt;Tools.Extensions -->
<g id="edge20" class="edge"><title>Tools.Tests&#45;&gt;Tools.Extensions</title>
<path fill="none" stroke="black" stroke-dasharray="5,2" d="M109.316,-64C117.565,-64 126.244,-64 134.953,-64"/>
<polygon fill="black" stroke="black" points="135.167,-67.5001 145.167,-64 135.167,-60.5001 135.167,-67.5001"/>
</g>
</g>
</svg>
