<?xml version="1.0" encoding="UTF-8" standalone="no"?>
<!DOCTYPE svg PUBLIC "-//W3C//DTD SVG 1.1//EN"
 "http://www.w3.org/Graphics/SVG/1.1/DTD/svg11.dtd">
<!-- Generated by graphviz version 2.38.0 (20140413.2041)
 -->
<!-- Title: G Pages: 1 -->
<svg width="1324pt" height="144pt"
 viewBox="0.00 0.00 1323.70 144.00" xmlns="http://www.w3.org/2000/svg" xmlns:xlink="http://www.w3.org/1999/xlink">
<g id="graph0" class="graph" transform="scale(1 1) rotate(0) translate(4 140)">
<title>G</title>
<polygon fill="white" stroke="none" points="-4,4 -4,-140 1319.7,-140 1319.7,4 -4,4"/>
<!-- Common.Extensions -->
<g id="node1" class="node"><title>Common.Extensions</title>
<ellipse fill="grey" stroke="grey" cx="426.869" cy="-118" rx="87.1846" ry="18"/>
<text text-anchor="middle" x="426.869" y="-114.3" font-family="Times New Roman,serif" font-size="14.00">Common.Extensions</text>
</g>
<!-- Common.Models -->
<g id="node2" class="node"><title>Common.Models</title>
<ellipse fill="grey" stroke="grey" cx="1035.32" cy="-95" rx="74.9875" ry="18"/>
<text text-anchor="middle" x="1035.32" y="-91.3" font-family="Times New Roman,serif" font-size="14.00">Common.Models</text>
</g>
<!-- Common.Extensions&#45;&gt;Common.Models -->
<g id="edge1" class="edge"><title>Common.Extensions&#45;&gt;Common.Models</title>
<path fill="none" stroke="black" d="M512.832,-114.778C628.964,-110.373 835.959,-102.523 951.15,-98.1544"/>
<polygon fill="black" stroke="black" points="951.463,-101.645 961.323,-97.7686 951.198,-94.6502 951.463,-101.645"/>
</g>
<!-- Common.Interfaces -->
<g id="node3" class="node"><title>Common.Interfaces</title>
<ellipse fill="grey" stroke="grey" cx="1232.51" cy="-68" rx="83.3857" ry="18"/>
<text text-anchor="middle" x="1232.51" y="-64.3" font-family="Times New Roman,serif" font-size="14.00">Common.Interfaces</text>
</g>
<!-- Common.Models&#45;&gt;Common.Interfaces -->
<g id="edge2" class="edge"><title>Common.Models&#45;&gt;Common.Interfaces</title>
<path fill="none" stroke="black" d="M1100.51,-86.1218C1116.95,-83.8476 1134.82,-81.3745 1151.94,-79.0072"/>
<polygon fill="black" stroke="black" points="1152.48,-82.4653 1161.91,-77.628 1151.52,-75.5313 1152.48,-82.4653"/>
</g>
<!-- Infrastructure.Interfaces -->
<g id="node4" class="node"><title>Infrastructure.Interfaces</title>
<ellipse fill="grey" stroke="grey" cx="647.452" cy="-18" rx="97.4827" ry="18"/>
<text text-anchor="middle" x="647.452" y="-14.3" font-family="Times New Roman,serif" font-size="14.00">Infrastructure.Interfaces</text>
</g>
<!-- Order.Interfaces -->
<g id="node5" class="node"><title>Order.Interfaces</title>
<ellipse fill="grey" stroke="grey" cx="851.137" cy="-18" rx="70.3881" ry="18"/>
<text text-anchor="middle" x="851.137" y="-14.3" font-family="Times New Roman,serif" font-size="14.00">Order.Interfaces</text>
</g>
<!-- Infrastructure.Interfaces&#45;&gt;Order.Interfaces -->
<g id="edge3" class="edge"><title>Infrastructure.Interfaces&#45;&gt;Order.Interfaces</title>
<path fill="none" stroke="black" d="M745.16,-18C753.713,-18 762.305,-18 770.691,-18"/>
<polygon fill="black" stroke="black" points="770.8,-21.5001 780.8,-18 770.8,-14.5001 770.8,-21.5001"/>
</g>
<!-- Product.Interfaces -->
<g id="node6" class="node"><title>Product.Interfaces</title>
<ellipse fill="grey" stroke="grey" cx="1035.32" cy="-41" rx="77.9862" ry="18"/>
<text text-anchor="middle" x="1035.32" y="-37.3" font-family="Times New Roman,serif" font-size="14.00">Product.Interfaces</text>
</g>
<!-- Order.Interfaces&#45;&gt;Product.Interfaces -->
<g id="edge4" class="edge"><title>Order.Interfaces&#45;&gt;Product.Interfaces</title>
<path fill="none" stroke="black" d="M914.326,-25.851C927.847,-27.5579 942.315,-29.3844 956.359,-31.1573"/>
<polygon fill="black" stroke="black" points="956.13,-34.6561 966.49,-32.4363 957.007,-27.7113 956.13,-34.6561"/>
</g>
<!-- Product.Interfaces&#45;&gt;Common.Interfaces -->
<g id="edge7" class="edge"><title>Product.Interfaces&#45;&gt;Common.Interfaces</title>
<path fill="none" stroke="black" d="M1102.68,-50.1786C1118.51,-52.3689 1135.57,-54.7287 1151.93,-56.9918"/>
<polygon fill="black" stroke="black" points="1151.62,-60.4826 1162.01,-58.386 1152.58,-53.5487 1151.62,-60.4826"/>
</g>
<!-- Order.Models -->
<g id="node7" class="node"><title>Order.Models</title>
<ellipse fill="grey" stroke="grey" cx="647.452" cy="-72" rx="61.99" ry="18"/>
<text text-anchor="middle" x="647.452" y="-68.3" font-family="Times New Roman,serif" font-size="14.00">Order.Models</text>
</g>
<!-- Order.Models&#45;&gt;Order.Interfaces -->
<g id="edge5" class="edge"><title>Order.Models&#45;&gt;Order.Interfaces</title>
<path fill="none" stroke="black" d="M693.463,-59.9486C722.481,-52.1791 760.506,-41.9982 791.828,-33.612"/>
<polygon fill="black" stroke="black" points="792.987,-36.9249 801.742,-30.9576 791.177,-30.1631 792.987,-36.9249"/>
</g>
<!-- Product.Models -->
<g id="node8" class="node"><title>Product.Models</title>
<ellipse fill="grey" stroke="grey" cx="851.137" cy="-72" rx="69.5877" ry="18"/>
<text text-anchor="middle" x="851.137" y="-68.3" font-family="Times New Roman,serif" font-size="14.00">Product.Models</text>
</g>
<!-- Order.Models&#45;&gt;Product.Models -->
<g id="edge6" class="edge"><title>Order.Models&#45;&gt;Product.Models</title>
<path fill="none" stroke="black" d="M709.238,-72C728.774,-72 750.706,-72 771.342,-72"/>
<polygon fill="black" stroke="black" points="771.352,-75.5001 781.352,-72 771.352,-68.5001 771.352,-75.5001"/>
</g>
<!-- Product.Models&#45;&gt;Common.Models -->
<g id="edge8" class="edge"><title>Product.Models&#45;&gt;Common.Models</title>
<path fill="none" stroke="black" d="M914.072,-79.8188C928.404,-81.6282 943.813,-83.5735 958.659,-85.4477"/>
<polygon fill="black" stroke="black" points="958.467,-88.9512 968.826,-86.7313 959.344,-82.0063 958.467,-88.9512"/>
</g>
<!-- Product.Models&#45;&gt;Product.Interfaces -->
<g id="edge9" class="edge"><title>Product.Models&#45;&gt;Product.Interfaces</title>
<path fill="none" stroke="black" d="M909.782,-62.1914C926.34,-59.3741 944.61,-56.2654 961.936,-53.3173"/>
<polygon fill="black" stroke="black" points="962.737,-56.7313 972.008,-51.6034 961.563,-49.8305 962.737,-56.7313"/>
</g>
<!-- Repositories -->
<g id="node9" class="node"><title>Repositories</title>
<ellipse fill="cyan" stroke="cyan" cx="426.869" cy="-64" rx="56.59" ry="18"/>
<text text-anchor="middle" x="426.869" y="-60.3" font-family="Times New Roman,serif" font-size="14.00">Repositories</text>
</g>
<!-- Repositories&#45;&gt;Infrastructure.Interfaces -->
<g id="edge10" class="edge"><title>Repositories&#45;&gt;Infrastructure.Interfaces</title>
<path fill="none" stroke="black" d="M474.492,-54.1883C503.013,-48.1862 540.133,-40.3745 572.582,-33.5457"/>
<polygon fill="black" stroke="black" points="573.423,-36.9455 582.488,-31.4611 571.981,-30.0955 573.423,-36.9455"/>
</g>
<!-- Repositories&#45;&gt;Order.Models -->
<g id="edge11" class="edge"><title>Repositories&#45;&gt;Order.Models</title>
<path fill="none" stroke="black" d="M483.309,-66.0291C511.49,-67.0605 546.04,-68.325 576.078,-69.4244"/>
<polygon fill="black" stroke="black" points="575.955,-72.9221 586.077,-69.7903 576.211,-65.9268 575.955,-72.9221"/>
</g>
<!-- Repositories.Tests -->
<g id="node10" class="node"><title>Repositories.Tests</title>
<ellipse fill="lightcyan" stroke="lightcyan" cx="224.483" cy="-118" rx="79.0865" ry="18"/>
<text text-anchor="middle" x="224.483" y="-114.3" font-family="Times New Roman,serif" font-size="14.00">Repositories.Tests</text>
</g>
<!-- Repositories.Tests&#45;&gt;Common.Extensions -->
<g id="edge12" class="edge"><title>Repositories.Tests&#45;&gt;Common.Extensions</title>
<path fill="none" stroke="black" d="M303.818,-118C312.26,-118 320.92,-118 329.541,-118"/>
<polygon fill="black" stroke="black" points="329.629,-121.5 339.629,-118 329.629,-114.5 329.629,-121.5"/>
</g>
<!-- Repositories.Tests&#45;&gt;Repositories -->
<g id="edge13" class="edge"><title>Repositories.Tests&#45;&gt;Repositories</title>
<path fill="none" stroke="black" stroke-dasharray="5,2" d="M276.308,-104.304C305.997,-96.303 343.397,-86.2245 373.37,-78.1474"/>
<polygon fill="black" stroke="black" points="374.483,-81.4724 383.228,-75.4909 372.662,-74.7135 374.483,-81.4724"/>
</g>
<!-- Tools -->
<g id="node11" class="node"><title>Tools</title>
<ellipse fill="lightsalmon" stroke="lightsalmon" cx="224.483" cy="-64" rx="32.4942" ry="18"/>
<text text-anchor="middle" x="224.483" y="-60.3" font-family="Times New Roman,serif" font-size="14.00">Tools</text>
</g>
<!-- Tools&#45;&gt;Common.Extensions -->
<g id="edge14" class="edge"><title>Tools&#45;&gt;Common.Extensions</title>
<path fill="none" stroke="black" d="M254.194,-71.7369C282.484,-79.3607 326.641,-91.2602 363.087,-101.081"/>
<polygon fill="black" stroke="black" points="362.576,-104.569 373.142,-103.791 364.397,-97.8097 362.576,-104.569"/>
</g>
<!-- Tools&#45;&gt;Repositories -->
<g id="edge15" class="edge"><title>Tools&#45;&gt;Repositories</title>
<path fill="none" stroke="black" d="M257.235,-64C284.756,-64 325.475,-64 360.005,-64"/>
<polygon fill="black" stroke="black" points="360.031,-67.5001 370.031,-64 360.031,-60.5001 360.031,-67.5001"/>
</g>
<!-- Tools.Tests -->
<g id="node12" class="node"><title>Tools.Tests</title>
<ellipse fill="lightsalmon" stroke="lightsalmon" cx="54.5952" cy="-64" rx="54.6905" ry="18"/>
<text text-anchor="middle" x="54.5952" y="-60.3" font-family="Times New Roman,serif" font-size="14.00">Tools.Tests</text>
</g>
<!-- Tools.Tests&#45;&gt;Tools -->
<g id="edge16" class="edge"><title>Tools.Tests&#45;&gt;Tools</title>
<path fill="none" stroke="black" stroke-dasharray="5,2" d="M109.64,-64C132.871,-64 159.615,-64 181.343,-64"/>
<polygon fill="black" stroke="black" points="181.568,-67.5001 191.568,-64 181.568,-60.5001 181.568,-67.5001"/>
</g>
</g>
</svg>
