<?xml version="1.0" encoding="UTF-8" standalone="no"?>
<!DOCTYPE svg PUBLIC "-//W3C//DTD SVG 1.1//EN"
 "http://www.w3.org/Graphics/SVG/1.1/DTD/svg11.dtd">
<!-- Generated by graphviz version 2.38.0 (20140413.2041)
 -->
<!-- Title: G Pages: 1 -->
<svg width="1840pt" height="396pt"
 viewBox="0.00 0.00 1839.69 395.61" xmlns="http://www.w3.org/2000/svg" xmlns:xlink="http://www.w3.org/1999/xlink">
<g id="graph0" class="graph" transform="scale(1 1) rotate(0) translate(4 391.61)">
<title>G</title>
<polygon fill="white" stroke="none" points="-4,4 -4,-391.61 1835.69,-391.61 1835.69,4 -4,4"/>
<!-- Common.Extensions -->
<g id="node1" class="node"><title>Common.Extensions</title>
<polygon fill="gold" stroke="black" points="1667.69,-279 1533.69,-279 1533.69,-243 1667.69,-243 1667.69,-279"/>
<text text-anchor="middle" x="1600.69" y="-257.3" font-family="Times New Roman,serif" font-size="14.00">Common.Extensions</text>
</g>
<!-- Common.Interfaces -->
<g id="node2" class="node"><title>Common.Interfaces</title>
<polygon fill="gold" stroke="black" points="1831.69,-198 1703.69,-198 1703.69,-162 1831.69,-162 1831.69,-198"/>
<text text-anchor="middle" x="1767.69" y="-176.3" font-family="Times New Roman,serif" font-size="14.00">Common.Interfaces</text>
</g>
<!-- Common.Extensions&#45;&gt;Common.Interfaces -->
<g id="edge1" class="edge"><title>Common.Extensions&#45;&gt;Common.Interfaces</title>
<path fill="none" stroke="black" d="M1638.72,-242.822C1662.92,-230.941 1694.71,-215.333 1720.55,-202.647"/>
<polygon fill="black" stroke="black" points="1722.35,-205.666 1729.78,-198.117 1719.26,-199.382 1722.35,-205.666"/>
</g>
<!-- Common.Extensions.Tests -->
<g id="node3" class="node"><title>Common.Extensions.Tests</title>
<ellipse fill="gold" stroke="black" stroke-dasharray="5,2" cx="1388.5" cy="-288" rx="109.381" ry="18"/>
<text text-anchor="middle" x="1388.5" y="-284.3" font-family="Times New Roman,serif" font-size="14.00">Common.Extensions.Tests</text>
</g>
<!-- Common.Extensions.Tests&#45;&gt;Common.Extensions -->
<g id="edge3" class="edge"><title>Common.Extensions.Tests&#45;&gt;Common.Extensions</title>
<path fill="none" stroke="black" stroke-dasharray="5,2" d="M1475.29,-276.979C1491.21,-274.934 1507.75,-272.81 1523.37,-270.804"/>
<polygon fill="black" stroke="black" points="1524.01,-274.25 1533.48,-269.504 1523.12,-267.307 1524.01,-274.25"/>
</g>
<!-- Common.Models -->
<g id="node4" class="node"><title>Common.Models</title>
<polygon fill="gold" stroke="black" points="1658.19,-198 1543.19,-198 1543.19,-162 1658.19,-162 1658.19,-198"/>
<text text-anchor="middle" x="1600.69" y="-176.3" font-family="Times New Roman,serif" font-size="14.00">Common.Models</text>
</g>
<!-- Common.Extensions.Tests&#45;&gt;Common.Models -->
<g id="edge2" class="edge"><title>Common.Extensions.Tests&#45;&gt;Common.Models</title>
<path fill="none" stroke="black" d="M1461.74,-274.544C1474.06,-270.972 1486.49,-266.519 1497.69,-261 1501.75,-258.999 1540.66,-227.787 1569.22,-204.704"/>
<polygon fill="black" stroke="black" points="1571.76,-207.153 1577.34,-198.142 1567.36,-201.711 1571.76,-207.153"/>
</g>
<!-- Common.Models&#45;&gt;Common.Interfaces -->
<g id="edge4" class="edge"><title>Common.Models&#45;&gt;Common.Interfaces</title>
<path fill="none" stroke="black" d="M1658.47,-180C1669.72,-180 1681.67,-180 1693.38,-180"/>
<polygon fill="black" stroke="black" points="1693.58,-183.5 1703.58,-180 1693.58,-176.5 1693.58,-183.5"/>
</g>
<!-- Common.Models.Tests -->
<g id="node5" class="node"><title>Common.Models.Tests</title>
<ellipse fill="gold" stroke="black" stroke-dasharray="5,2" cx="1388.5" cy="-180" rx="96.6831" ry="18"/>
<text text-anchor="middle" x="1388.5" y="-176.3" font-family="Times New Roman,serif" font-size="14.00">Common.Models.Tests</text>
</g>
<!-- Common.Models.Tests&#45;&gt;Common.Models -->
<g id="edge5" class="edge"><title>Common.Models.Tests&#45;&gt;Common.Models</title>
<path fill="none" stroke="black" stroke-dasharray="5,2" d="M1485.36,-180C1501.38,-180 1517.67,-180 1532.76,-180"/>
<polygon fill="black" stroke="black" points="1532.99,-183.5 1542.99,-180 1532.99,-176.5 1532.99,-183.5"/>
</g>
<!-- Infrastructure.Interfaces -->
<g id="node6" class="node"><title>Infrastructure.Interfaces</title>
<polygon fill="gold" stroke="black" points="1213.66,-36 1063.66,-36 1063.66,-0 1213.66,-0 1213.66,-36"/>
<text text-anchor="middle" x="1138.66" y="-14.3" font-family="Times New Roman,serif" font-size="14.00">Infrastructure.Interfaces</text>
</g>
<!-- Order.Interfaces -->
<g id="node7" class="node"><title>Order.Interfaces</title>
<polygon fill="gold" stroke="black" points="1442.5,-90 1334.5,-90 1334.5,-54 1442.5,-54 1442.5,-90"/>
<text text-anchor="middle" x="1388.5" y="-68.3" font-family="Times New Roman,serif" font-size="14.00">Order.Interfaces</text>
</g>
<!-- Infrastructure.Interfaces&#45;&gt;Order.Interfaces -->
<g id="edge6" class="edge"><title>Infrastructure.Interfaces&#45;&gt;Order.Interfaces</title>
<path fill="none" stroke="black" d="M1213.69,-34.1286C1248.85,-41.7894 1290.44,-50.8519 1324.12,-58.1907"/>
<polygon fill="black" stroke="black" points="1323.79,-61.7002 1334.3,-60.4094 1325.28,-54.8606 1323.79,-61.7002"/>
</g>
<!-- Product.Interfaces -->
<g id="node11" class="node"><title>Product.Interfaces</title>
<polygon fill="gold" stroke="black" points="1660.69,-144 1540.69,-144 1540.69,-108 1660.69,-108 1660.69,-144"/>
<text text-anchor="middle" x="1600.69" y="-122.3" font-family="Times New Roman,serif" font-size="14.00">Product.Interfaces</text>
</g>
<!-- Order.Interfaces&#45;&gt;Product.Interfaces -->
<g id="edge11" class="edge"><title>Order.Interfaces&#45;&gt;Product.Interfaces</title>
<path fill="none" stroke="black" d="M1442.64,-85.1022C1460.18,-89.4698 1479.78,-94.3961 1497.69,-99 1508.46,-101.77 1519.86,-104.744 1530.98,-107.671"/>
<polygon fill="black" stroke="black" points="1530.1,-111.058 1540.66,-110.224 1531.89,-104.29 1530.1,-111.058"/>
</g>
<!-- Order.Extensions -->
<g id="node8" class="node"><title>Order.Extensions</title>
<polygon fill="gold" stroke="black" points="1195.66,-352 1081.66,-352 1081.66,-316 1195.66,-316 1195.66,-352"/>
<text text-anchor="middle" x="1138.66" y="-330.3" font-family="Times New Roman,serif" font-size="14.00">Order.Extensions</text>
</g>
<!-- Order.Extensions&#45;&gt;Common.Extensions -->
<g id="edge7" class="edge"><title>Order.Extensions&#45;&gt;Common.Extensions</title>
<path fill="none" stroke="black" d="M1195.75,-338.377C1267.26,-342.303 1394.05,-343.676 1497.69,-315 1521.36,-308.449 1545.75,-295.79 1564.74,-284.375"/>
<polygon fill="black" stroke="black" points="1566.66,-287.303 1573.33,-279.074 1562.99,-281.345 1566.66,-287.303"/>
</g>
<!-- Order.Extensions&#45;&gt;Order.Interfaces -->
<g id="edge8" class="edge"><title>Order.Extensions&#45;&gt;Order.Interfaces</title>
<path fill="none" stroke="black" d="M1158.19,-315.804C1181.03,-292.472 1219.7,-249.884 1243.31,-207 1267.7,-162.673 1242.17,-133.37 1279.31,-99 1291.6,-87.6196 1307.95,-80.8479 1324.2,-76.8696"/>
<polygon fill="black" stroke="black" points="1325.21,-80.2329 1334.27,-74.7373 1323.76,-73.3847 1325.21,-80.2329"/>
</g>
<!-- Order.Extensions.Tests -->
<g id="node9" class="node"><title>Order.Extensions.Tests</title>
<ellipse fill="gold" stroke="black" stroke-dasharray="5,2" cx="901.183" cy="-310" rx="96.6831" ry="18"/>
<text text-anchor="middle" x="901.183" y="-306.3" font-family="Times New Roman,serif" font-size="14.00">Order.Extensions.Tests</text>
</g>
<!-- Order.Extensions.Tests&#45;&gt;Order.Extensions -->
<g id="edge10" class="edge"><title>Order.Extensions.Tests&#45;&gt;Order.Extensions</title>
<path fill="none" stroke="black" stroke-dasharray="5,2" d="M986.532,-318.597C1014.38,-321.435 1044.94,-324.549 1071.25,-327.231"/>
<polygon fill="black" stroke="black" points="1071.18,-330.742 1081.48,-328.274 1071.89,-323.778 1071.18,-330.742"/>
</g>
<!-- Order.Models -->
<g id="node10" class="node"><title>Order.Models</title>
<polygon fill="gold" stroke="black" points="1186.16,-90 1091.16,-90 1091.16,-54 1186.16,-54 1186.16,-90"/>
<text text-anchor="middle" x="1138.66" y="-68.3" font-family="Times New Roman,serif" font-size="14.00">Order.Models</text>
</g>
<!-- Order.Extensions.Tests&#45;&gt;Order.Models -->
<g id="edge9" class="edge"><title>Order.Extensions.Tests&#45;&gt;Order.Models</title>
<path fill="none" stroke="black" d="M913.201,-291.976C944.073,-241.526 1029.47,-102.348 1034.02,-99 1047.67,-88.9723 1064.73,-82.6623 1081.05,-78.6939"/>
<polygon fill="black" stroke="black" points="1082.04,-82.0591 1091.07,-76.5133 1080.55,-75.2191 1082.04,-82.0591"/>
</g>
<!-- Order.Models&#45;&gt;Order.Interfaces -->
<g id="edge12" class="edge"><title>Order.Models&#45;&gt;Order.Interfaces</title>
<path fill="none" stroke="black" d="M1186.28,-72C1225.22,-72 1281.12,-72 1324.13,-72"/>
<polygon fill="black" stroke="black" points="1324.21,-75.5001 1334.21,-72 1324.21,-68.5001 1324.21,-75.5001"/>
</g>
<!-- Product.Models -->
<g id="node12" class="node"><title>Product.Models</title>
<polygon fill="gold" stroke="black" points="1442,-144 1335,-144 1335,-108 1442,-108 1442,-144"/>
<text text-anchor="middle" x="1388.5" y="-122.3" font-family="Times New Roman,serif" font-size="14.00">Product.Models</text>
</g>
<!-- Order.Models&#45;&gt;Product.Models -->
<g id="edge13" class="edge"><title>Order.Models&#45;&gt;Product.Models</title>
<path fill="none" stroke="black" d="M1186.28,-82.157C1225.44,-90.6885 1281.73,-102.956 1324.83,-112.346"/>
<polygon fill="black" stroke="black" points="1324.13,-115.775 1334.65,-114.484 1325.62,-108.936 1324.13,-115.775"/>
</g>
<!-- Product.Interfaces&#45;&gt;Common.Interfaces -->
<g id="edge19" class="edge"><title>Product.Interfaces&#45;&gt;Common.Interfaces</title>
<path fill="none" stroke="black" d="M1657.09,-144.131C1671.45,-148.832 1687.04,-153.935 1701.84,-158.778"/>
<polygon fill="black" stroke="black" points="1700.84,-162.132 1711.43,-161.916 1703.02,-155.48 1700.84,-162.132"/>
</g>
<!-- Product.Models&#45;&gt;Common.Models -->
<g id="edge20" class="edge"><title>Product.Models&#45;&gt;Common.Models</title>
<path fill="none" stroke="black" d="M1442.09,-138.965C1459.77,-143.367 1479.59,-148.348 1497.69,-153 1509.19,-155.958 1521.41,-159.15 1533.25,-162.267"/>
<polygon fill="black" stroke="black" points="1532.51,-165.693 1543.07,-164.861 1534.3,-158.925 1532.51,-165.693"/>
</g>
<!-- Product.Models&#45;&gt;Product.Interfaces -->
<g id="edge21" class="edge"><title>Product.Models&#45;&gt;Product.Interfaces</title>
<path fill="none" stroke="black" d="M1442.26,-126C1468.91,-126 1501.57,-126 1530.23,-126"/>
<polygon fill="black" stroke="black" points="1530.59,-129.5 1540.59,-126 1530.59,-122.5 1530.59,-129.5"/>
</g>
<!-- Order.Models.Tests -->
<g id="node13" class="node"><title>Order.Models.Tests</title>
<ellipse fill="gold" stroke="black" stroke-dasharray="5,2" cx="901.183" cy="-126" rx="84.485" ry="18"/>
<text text-anchor="middle" x="901.183" y="-122.3" font-family="Times New Roman,serif" font-size="14.00">Order.Models.Tests</text>
</g>
<!-- Order.Models.Tests&#45;&gt;Order.Models -->
<g id="edge14" class="edge"><title>Order.Models.Tests&#45;&gt;Order.Models</title>
<path fill="none" stroke="black" stroke-dasharray="5,2" d="M959.487,-112.859C996.321,-104.412 1043.98,-93.483 1080.74,-85.0535"/>
<polygon fill="black" stroke="black" points="1081.84,-88.393 1090.8,-82.7464 1080.27,-81.5701 1081.84,-88.393"/>
</g>
<!-- Product.Extensions -->
<g id="node14" class="node"><title>Product.Extensions</title>
<polygon fill="gold" stroke="black" points="1451.5,-252 1325.5,-252 1325.5,-216 1451.5,-216 1451.5,-252"/>
<text text-anchor="middle" x="1388.5" y="-230.3" font-family="Times New Roman,serif" font-size="14.00">Product.Extensions</text>
</g>
<!-- Product.Extensions&#45;&gt;Common.Extensions -->
<g id="edge15" class="edge"><title>Product.Extensions&#45;&gt;Common.Extensions</title>
<path fill="none" stroke="black" d="M1451.71,-241.991C1474.27,-244.889 1500.01,-248.196 1523.63,-251.231"/>
<polygon fill="black" stroke="black" points="1523.25,-254.71 1533.61,-252.512 1524.14,-247.767 1523.25,-254.71"/>
</g>
<!-- Product.Extensions&#45;&gt;Product.Interfaces -->
<g id="edge16" class="edge"><title>Product.Extensions&#45;&gt;Product.Interfaces</title>
<path fill="none" stroke="black" d="M1451.54,-226.708C1467.59,-222.709 1484.15,-216.532 1497.69,-207 1521.27,-190.389 1511.36,-171.262 1533.69,-153 1535.07,-151.868 1536.51,-150.779 1537.99,-149.729"/>
<polygon fill="black" stroke="black" points="1540.26,-152.436 1546.87,-144.157 1536.54,-146.507 1540.26,-152.436"/>
</g>
<!-- Product.Extensions.Tests -->
<g id="node15" class="node"><title>Product.Extensions.Tests</title>
<ellipse fill="gold" stroke="black" stroke-dasharray="5,2" cx="1138.66" cy="-180" rx="104.782" ry="18"/>
<text text-anchor="middle" x="1138.66" y="-176.3" font-family="Times New Roman,serif" font-size="14.00">Product.Extensions.Tests</text>
</g>
<!-- Product.Extensions.Tests&#45;&gt;Product.Models -->
<g id="edge17" class="edge"><title>Product.Extensions.Tests&#45;&gt;Product.Models</title>
<path fill="none" stroke="black" d="M1204.13,-165.953C1241.23,-157.869 1287.65,-147.756 1324.5,-139.726"/>
<polygon fill="black" stroke="black" points="1325.6,-143.069 1334.62,-137.52 1324.11,-136.23 1325.6,-143.069"/>
</g>
<!-- Product.Extensions.Tests&#45;&gt;Product.Extensions -->
<g id="edge18" class="edge"><title>Product.Extensions.Tests&#45;&gt;Product.Extensions</title>
<path fill="none" stroke="black" stroke-dasharray="5,2" d="M1204.13,-194.047C1238.2,-201.47 1280.13,-210.606 1315.29,-218.267"/>
<polygon fill="black" stroke="black" points="1314.97,-221.78 1325.49,-220.489 1316.46,-214.94 1314.97,-221.78"/>
</g>
<!-- Product.Models.Tests -->
<g id="node16" class="node"><title>Product.Models.Tests</title>
<ellipse fill="gold" stroke="black" stroke-dasharray="5,2" cx="1138.66" cy="-126" rx="92.0841" ry="18"/>
<text text-anchor="middle" x="1138.66" y="-122.3" font-family="Times New Roman,serif" font-size="14.00">Product.Models.Tests</text>
</g>
<!-- Product.Models.Tests&#45;&gt;Product.Models -->
<g id="edge22" class="edge"><title>Product.Models.Tests&#45;&gt;Product.Models</title>
<path fill="none" stroke="black" stroke-dasharray="5,2" d="M1231.24,-126C1262.31,-126 1296.3,-126 1324.62,-126"/>
<polygon fill="black" stroke="black" points="1324.78,-129.5 1334.78,-126 1324.78,-122.5 1324.78,-129.5"/>
</g>
<!-- Repositories -->
<g id="node17" class="node"><title>Repositories</title>
<polygon fill="tomato" stroke="black" points="944.683,-90 857.683,-90 857.683,-54 944.683,-54 944.683,-90"/>
<text text-anchor="middle" x="901.183" y="-68.3" font-family="Times New Roman,serif" font-size="14.00">Repositories</text>
</g>
<!-- Repositories&#45;&gt;Infrastructure.Interfaces -->
<g id="edge23" class="edge"><title>Repositories&#45;&gt;Infrastructure.Interfaces</title>
<path fill="none" stroke="black" d="M944.827,-62.221C975.122,-55.2739 1016.8,-45.7163 1053.66,-37.2635"/>
<polygon fill="black" stroke="black" points="1054.45,-40.6733 1063.42,-35.0266 1052.89,-33.8504 1054.45,-40.6733"/>
</g>
<!-- Repositories&#45;&gt;Order.Models -->
<g id="edge24" class="edge"><title>Repositories&#45;&gt;Order.Models</title>
<path fill="none" stroke="black" d="M944.827,-72C982.906,-72 1038.97,-72 1080.85,-72"/>
<polygon fill="black" stroke="black" points="1080.9,-75.5001 1090.9,-72 1080.9,-68.5001 1080.9,-75.5001"/>
</g>
<!-- Repositories.Tests -->
<g id="node18" class="node"><title>Repositories.Tests</title>
<ellipse fill="tomato" stroke="black" stroke-dasharray="5,2" cx="689.048" cy="-264" rx="79.0865" ry="18"/>
<text text-anchor="middle" x="689.048" y="-260.3" font-family="Times New Roman,serif" font-size="14.00">Repositories.Tests</text>
</g>
<!-- Repositories.Tests&#45;&gt;Order.Extensions -->
<g id="edge25" class="edge"><title>Repositories.Tests&#45;&gt;Order.Extensions</title>
<path fill="none" stroke="black" d="M702.297,-281.776C720.912,-307.031 758.994,-352.208 804.341,-370 896.914,-406.32 1014.38,-378.128 1082.29,-355.355"/>
<polygon fill="black" stroke="black" points="1083.62,-358.599 1091.94,-352.042 1081.34,-351.978 1083.62,-358.599"/>
</g>
<!-- Repositories.Tests&#45;&gt;Product.Extensions -->
<g id="edge26" class="edge"><title>Repositories.Tests&#45;&gt;Product.Extensions</title>
<path fill="none" stroke="black" d="M767.017,-260.689C902.708,-254.853 1182.62,-242.812 1315.04,-237.117"/>
<polygon fill="black" stroke="black" points="1315.24,-240.611 1325.09,-236.685 1314.94,-233.618 1315.24,-240.611"/>
</g>
<!-- Repositories.Tests&#45;&gt;Repositories -->
<g id="edge27" class="edge"><title>Repositories.Tests&#45;&gt;Repositories</title>
<path fill="none" stroke="black" stroke-dasharray="5,2" d="M709.278,-246.284C726.367,-229.806 751.222,-203.957 768.341,-178 789.585,-145.79 775.053,-124.119 804.341,-99 816.397,-88.6606 832.144,-82.2649 847.38,-78.314"/>
<polygon fill="black" stroke="black" points="848.305,-81.693 857.274,-76.0539 846.746,-74.8688 848.305,-81.693"/>
</g>
<!-- Services.Implementation -->
<g id="node19" class="node"><title>Services.Implementation</title>
<polygon fill="lightskyblue" stroke="black" points="765.548,-136 612.548,-136 612.548,-100 765.548,-100 765.548,-136"/>
<text text-anchor="middle" x="689.048" y="-114.3" font-family="Times New Roman,serif" font-size="14.00">Services.Implementation</text>
</g>
<!-- Services.Implementation&#45;&gt;Order.Extensions -->
<g id="edge28" class="edge"><title>Services.Implementation&#45;&gt;Order.Extensions</title>
<path fill="none" stroke="black" d="M703.955,-136.136C720.847,-158.788 749.426,-199.178 768.341,-237 789.47,-279.248 765.695,-309.838 804.341,-337 845.801,-366.139 986.53,-354.006 1071.3,-343.432"/>
<polygon fill="black" stroke="black" points="1071.88,-346.888 1081.36,-342.153 1070.99,-339.944 1071.88,-346.888"/>
</g>
<!-- Services.Implementation&#45;&gt;Product.Extensions -->
<g id="edge29" class="edge"><title>Services.Implementation&#45;&gt;Product.Extensions</title>
<path fill="none" stroke="black" d="M746.223,-136.013C764.664,-141.709 785.31,-147.855 804.341,-153 905.572,-180.368 930.394,-190.959 1034.02,-207 1130.54,-221.941 1243.23,-228.733 1314.95,-231.739"/>
<polygon fill="black" stroke="black" points="1315.09,-235.247 1325.23,-232.155 1315.38,-228.253 1315.09,-235.247"/>
</g>
<!-- Services.Interfaces -->
<g id="node20" class="node"><title>Services.Interfaces</title>
<polygon fill="lightskyblue" stroke="black" points="962.183,-36 840.183,-36 840.183,-0 962.183,-0 962.183,-36"/>
<text text-anchor="middle" x="901.183" y="-14.3" font-family="Times New Roman,serif" font-size="14.00">Services.Interfaces</text>
</g>
<!-- Services.Implementation&#45;&gt;Services.Interfaces -->
<g id="edge30" class="edge"><title>Services.Implementation&#45;&gt;Services.Interfaces</title>
<path fill="none" stroke="black" d="M713.832,-99.8497C736.167,-83.5425 771.041,-59.9307 804.341,-45 812.624,-41.2864 821.541,-37.9603 830.483,-35.0189"/>
<polygon fill="black" stroke="black" points="831.676,-38.313 840.168,-31.9782 829.579,-31.6345 831.676,-38.313"/>
</g>
<!-- Services.Interfaces&#45;&gt;Infrastructure.Interfaces -->
<g id="edge33" class="edge"><title>Services.Interfaces&#45;&gt;Infrastructure.Interfaces</title>
<path fill="none" stroke="black" d="M962.214,-18C989.882,-18 1023.2,-18 1053.33,-18"/>
<polygon fill="black" stroke="black" points="1053.42,-21.5001 1063.42,-18 1053.42,-14.5001 1053.42,-21.5001"/>
</g>
<!-- Services.Implementation.Tests -->
<g id="node21" class="node"><title>Services.Implementation.Tests</title>
<ellipse fill="lightskyblue" stroke="black" stroke-dasharray="5,2" cx="451.566" cy="-91" rx="122.379" ry="18"/>
<text text-anchor="middle" x="451.566" y="-87.3" font-family="Times New Roman,serif" font-size="14.00">Services.Implementation.Tests</text>
</g>
<!-- Services.Implementation.Tests&#45;&gt;Repositories -->
<g id="edge31" class="edge"><title>Services.Implementation.Tests&#45;&gt;Repositories</title>
<path fill="none" stroke="black" d="M569.296,-86.0452C659.35,-82.2226 779.666,-77.1156 847.628,-74.2308"/>
<polygon fill="black" stroke="black" points="847.826,-77.7256 857.669,-73.8046 847.529,-70.7319 847.826,-77.7256"/>
</g>
<!-- Services.Implementation.Tests&#45;&gt;Services.Implementation -->
<g id="edge32" class="edge"><title>Services.Implementation.Tests&#45;&gt;Services.Implementation</title>
<path fill="none" stroke="black" stroke-dasharray="5,2" d="M548.686,-102.021C566.439,-104.056 584.872,-106.17 602.294,-108.168"/>
<polygon fill="black" stroke="black" points="602.089,-111.667 612.422,-109.329 602.886,-104.712 602.089,-111.667"/>
</g>
<!-- Tools -->
<g id="node22" class="node"><title>Tools</title>
<ellipse fill="plum" stroke="black" cx="451.566" cy="-154" rx="32.4942" ry="18"/>
<text text-anchor="middle" x="451.566" y="-150.3" font-family="Times New Roman,serif" font-size="14.00">Tools</text>
</g>
<!-- Tools&#45;&gt;Repositories -->
<g id="edge34" class="edge"><title>Tools&#45;&gt;Repositories</title>
<path fill="none" stroke="black" d="M481.997,-161.016C540.312,-173.298 673.121,-193.084 768.341,-145 791.515,-133.298 782.779,-113.458 804.341,-99 817.174,-90.3955 832.728,-84.5081 847.539,-80.4894"/>
<polygon fill="black" stroke="black" points="848.763,-83.7922 857.631,-77.9954 847.084,-76.9967 848.763,-83.7922"/>
</g>
<!-- Tools&#45;&gt;Services.Implementation -->
<g id="edge35" class="edge"><title>Tools&#45;&gt;Services.Implementation</title>
<path fill="none" stroke="black" d="M483.351,-149.294C513.469,-144.689 560.737,-137.463 602.266,-131.114"/>
<polygon fill="black" stroke="black" points="603.053,-134.535 612.409,-129.564 601.995,-127.615 603.053,-134.535"/>
</g>
<!-- Tools.Extensions -->
<g id="node23" class="node"><title>Tools.Extensions</title>
<ellipse fill="plum" stroke="black" cx="219.284" cy="-154" rx="74.187" ry="18"/>
<text text-anchor="middle" x="219.284" y="-150.3" font-family="Times New Roman,serif" font-size="14.00">Tools.Extensions</text>
</g>
<!-- Tools.Extensions&#45;&gt;Tools -->
<g id="edge36" class="edge"><title>Tools.Extensions&#45;&gt;Tools</title>
<path fill="none" stroke="black" stroke-dasharray="5,2" d="M293.463,-154C331.445,-154 376.484,-154 408.579,-154"/>
<polygon fill="black" stroke="black" points="408.939,-157.5 418.939,-154 408.939,-150.5 408.939,-157.5"/>
</g>
<!-- Tools.Tests -->
<g id="node24" class="node"><title>Tools.Tests</title>
<ellipse fill="plum" stroke="black" stroke-dasharray="5,2" cx="54.5952" cy="-154" rx="54.6905" ry="18"/>
<text text-anchor="middle" x="54.5952" y="-150.3" font-family="Times New Roman,serif" font-size="14.00">Tools.Tests</text>
</g>
<!-- Tools.Tests&#45;&gt;Tools.Extensions -->
<g id="edge37" class="edge"><title>Tools.Tests&#45;&gt;Tools.Extensions</title>
<path fill="none" stroke="black" stroke-dasharray="5,2" d="M109.316,-154C117.565,-154 126.244,-154 134.953,-154"/>
<polygon fill="black" stroke="black" points="135.167,-157.5 145.167,-154 135.167,-150.5 135.167,-157.5"/>
</g>
</g>
</svg>
