<?xml version="1.0" encoding="UTF-8" standalone="no"?>
<!DOCTYPE svg PUBLIC "-//W3C//DTD SVG 1.1//EN"
 "http://www.w3.org/Graphics/SVG/1.1/DTD/svg11.dtd">
<!-- Generated by graphviz version 2.38.0 (20140413.2041)
 -->
<!-- Title: G Pages: 1 -->
<svg width="1324pt" height="167pt"
 viewBox="0.00 0.00 1323.70 167.00" xmlns="http://www.w3.org/2000/svg" xmlns:xlink="http://www.w3.org/1999/xlink">
<g id="graph0" class="graph" transform="scale(1 1) rotate(0) translate(4 163)">
<title>G</title>
<polygon fill="white" stroke="none" points="-4,4 -4,-163 1319.7,-163 1319.7,4 -4,4"/>
<!-- Common.Extensions -->
<g id="node1" class="node"><title>Common.Extensions</title>
<ellipse fill="grey" stroke="grey" cx="426.869" cy="-18" rx="87.1846" ry="18"/>
<text text-anchor="middle" x="426.869" y="-14.3" font-family="Times New Roman,serif" font-size="14.00">Common.Extensions</text>
</g>
<!-- Common.Models -->
<g id="node2" class="node"><title>Common.Models</title>
<ellipse fill="grey" stroke="grey" cx="1035.32" cy="-41" rx="74.9875" ry="18"/>
<text text-anchor="middle" x="1035.32" y="-37.3" font-family="Times New Roman,serif" font-size="14.00">Common.Models</text>
</g>
<!-- Common.Extensions&#45;&gt;Common.Models -->
<g id="edge1" class="edge"><title>Common.Extensions&#45;&gt;Common.Models</title>
<path fill="none" stroke="black" d="M514.013,-16.8358C612.589,-16.1384 778.809,-16.899 921.331,-27 933.933,-27.8932 947.286,-29.213 960.229,-30.6908"/>
<polygon fill="black" stroke="black" points="960.157,-34.2066 970.499,-31.9046 960.979,-27.255 960.157,-34.2066"/>
</g>
<!-- Common.Interfaces -->
<g id="node3" class="node"><title>Common.Interfaces</title>
<ellipse fill="grey" stroke="grey" cx="1232.51" cy="-68" rx="83.3857" ry="18"/>
<text text-anchor="middle" x="1232.51" y="-64.3" font-family="Times New Roman,serif" font-size="14.00">Common.Interfaces</text>
</g>
<!-- Common.Models&#45;&gt;Common.Interfaces -->
<g id="edge2" class="edge"><title>Common.Models&#45;&gt;Common.Interfaces</title>
<path fill="none" stroke="black" d="M1100.51,-49.8782C1116.95,-52.1524 1134.82,-54.6255 1151.94,-56.9928"/>
<polygon fill="black" stroke="black" points="1151.52,-60.4687 1161.91,-58.372 1152.48,-53.5347 1151.52,-60.4687"/>
</g>
<!-- Infrastructure.Interfaces -->
<g id="node4" class="node"><title>Infrastructure.Interfaces</title>
<ellipse fill="grey" stroke="grey" cx="647.452" cy="-141" rx="97.4827" ry="18"/>
<text text-anchor="middle" x="647.452" y="-137.3" font-family="Times New Roman,serif" font-size="14.00">Infrastructure.Interfaces</text>
</g>
<!-- Order.Interfaces -->
<g id="node5" class="node"><title>Order.Interfaces</title>
<ellipse fill="grey" stroke="grey" cx="851.137" cy="-141" rx="70.3881" ry="18"/>
<text text-anchor="middle" x="851.137" y="-137.3" font-family="Times New Roman,serif" font-size="14.00">Order.Interfaces</text>
</g>
<!-- Infrastructure.Interfaces&#45;&gt;Order.Interfaces -->
<g id="edge3" class="edge"><title>Infrastructure.Interfaces&#45;&gt;Order.Interfaces</title>
<path fill="none" stroke="black" d="M745.16,-141C753.713,-141 762.305,-141 770.691,-141"/>
<polygon fill="black" stroke="black" points="770.8,-144.5 780.8,-141 770.8,-137.5 770.8,-144.5"/>
</g>
<!-- Product.Interfaces -->
<g id="node6" class="node"><title>Product.Interfaces</title>
<ellipse fill="grey" stroke="grey" cx="1035.32" cy="-95" rx="77.9862" ry="18"/>
<text text-anchor="middle" x="1035.32" y="-91.3" font-family="Times New Roman,serif" font-size="14.00">Product.Interfaces</text>
</g>
<!-- Order.Interfaces&#45;&gt;Product.Interfaces -->
<g id="edge4" class="edge"><title>Order.Interfaces&#45;&gt;Product.Interfaces</title>
<path fill="none" stroke="black" d="M901.921,-128.43C923.579,-122.962 949.191,-116.495 972.09,-110.713"/>
<polygon fill="black" stroke="black" points="973.217,-114.039 982.056,-108.197 971.503,-107.252 973.217,-114.039"/>
</g>
<!-- Product.Interfaces&#45;&gt;Common.Interfaces -->
<g id="edge7" class="edge"><title>Product.Interfaces&#45;&gt;Common.Interfaces</title>
<path fill="none" stroke="black" d="M1102.68,-85.8214C1118.51,-83.6311 1135.57,-81.2713 1151.93,-79.0082"/>
<polygon fill="black" stroke="black" points="1152.58,-82.4513 1162.01,-77.614 1151.62,-75.5174 1152.58,-82.4513"/>
</g>
<!-- Order.Models -->
<g id="node7" class="node"><title>Order.Models</title>
<ellipse fill="grey" stroke="grey" cx="647.452" cy="-87" rx="61.99" ry="18"/>
<text text-anchor="middle" x="647.452" y="-83.3" font-family="Times New Roman,serif" font-size="14.00">Order.Models</text>
</g>
<!-- Order.Models&#45;&gt;Order.Interfaces -->
<g id="edge5" class="edge"><title>Order.Models&#45;&gt;Order.Interfaces</title>
<path fill="none" stroke="black" d="M693.463,-99.0514C722.481,-106.821 760.506,-117.002 791.828,-125.388"/>
<polygon fill="black" stroke="black" points="791.177,-128.837 801.742,-128.042 792.987,-122.075 791.177,-128.837"/>
</g>
<!-- Product.Models -->
<g id="node8" class="node"><title>Product.Models</title>
<ellipse fill="grey" stroke="grey" cx="851.137" cy="-87" rx="69.5877" ry="18"/>
<text text-anchor="middle" x="851.137" y="-83.3" font-family="Times New Roman,serif" font-size="14.00">Product.Models</text>
</g>
<!-- Order.Models&#45;&gt;Product.Models -->
<g id="edge6" class="edge"><title>Order.Models&#45;&gt;Product.Models</title>
<path fill="none" stroke="black" d="M709.238,-87C728.774,-87 750.706,-87 771.342,-87"/>
<polygon fill="black" stroke="black" points="771.352,-90.5001 781.352,-87 771.352,-83.5001 771.352,-90.5001"/>
</g>
<!-- Product.Models&#45;&gt;Common.Models -->
<g id="edge8" class="edge"><title>Product.Models&#45;&gt;Common.Models</title>
<path fill="none" stroke="black" d="M901.44,-74.5517C923.57,-68.9641 949.901,-62.3158 973.265,-56.4168"/>
<polygon fill="black" stroke="black" points="974.236,-59.7814 983.075,-53.9398 972.522,-52.9944 974.236,-59.7814"/>
</g>
<!-- Product.Models&#45;&gt;Product.Interfaces -->
<g id="edge9" class="edge"><title>Product.Models&#45;&gt;Product.Interfaces</title>
<path fill="none" stroke="black" d="M919.977,-89.9789C929.19,-90.3834 938.742,-90.8029 948.223,-91.2192"/>
<polygon fill="black" stroke="black" points="948.318,-94.7267 958.462,-91.6688 948.625,-87.7334 948.318,-94.7267"/>
</g>
<!-- Repositories -->
<g id="node9" class="node"><title>Repositories</title>
<ellipse fill="cyan" stroke="cyan" cx="426.869" cy="-72" rx="56.59" ry="18"/>
<text text-anchor="middle" x="426.869" y="-68.3" font-family="Times New Roman,serif" font-size="14.00">Repositories</text>
</g>
<!-- Repositories&#45;&gt;Common.Models -->
<g id="edge10" class="edge"><title>Repositories&#45;&gt;Common.Models</title>
<path fill="none" stroke="black" d="M480.396,-66.155C501.931,-63.9365 527.119,-61.5692 549.961,-60 690.446,-50.3491 854.215,-45.1971 950.811,-42.7858"/>
<polygon fill="black" stroke="black" points="950.899,-46.2848 960.809,-42.5401 950.726,-39.2869 950.899,-46.2848"/>
</g>
<!-- Repositories&#45;&gt;Infrastructure.Interfaces -->
<g id="edge11" class="edge"><title>Repositories&#45;&gt;Infrastructure.Interfaces</title>
<path fill="none" stroke="black" d="M465.087,-85.4359C489.176,-93.9752 521.284,-105.064 549.961,-114 560.197,-117.19 571.097,-120.408 581.748,-123.457"/>
<polygon fill="black" stroke="black" points="580.858,-126.843 591.433,-126.204 582.768,-120.109 580.858,-126.843"/>
</g>
<!-- Repositories&#45;&gt;Order.Models -->
<g id="edge12" class="edge"><title>Repositories&#45;&gt;Order.Models</title>
<path fill="none" stroke="black" d="M482.463,-75.7464C511.092,-77.7111 546.468,-80.1387 577.026,-82.2357"/>
<polygon fill="black" stroke="black" points="576.971,-85.7401 587.188,-82.9331 577.451,-78.7566 576.971,-85.7401"/>
</g>
<!-- Repositories.Tests -->
<g id="node10" class="node"><title>Repositories.Tests</title>
<ellipse fill="lightcyan" stroke="lightcyan" cx="224.483" cy="-72" rx="79.0865" ry="18"/>
<text text-anchor="middle" x="224.483" y="-68.3" font-family="Times New Roman,serif" font-size="14.00">Repositories.Tests</text>
</g>
<!-- Repositories.Tests&#45;&gt;Common.Extensions -->
<g id="edge13" class="edge"><title>Repositories.Tests&#45;&gt;Common.Extensions</title>
<path fill="none" stroke="black" d="M276.308,-58.3037C302.757,-51.1763 335.324,-42.3999 363.309,-34.8586"/>
<polygon fill="black" stroke="black" points="364.254,-38.2288 372.999,-32.2473 362.433,-31.4699 364.254,-38.2288"/>
</g>
<!-- Repositories.Tests&#45;&gt;Repositories -->
<g id="edge14" class="edge"><title>Repositories.Tests&#45;&gt;Repositories</title>
<path fill="none" stroke="black" stroke-dasharray="5,2" d="M303.818,-72C322.441,-72 342.122,-72 360.116,-72"/>
<polygon fill="black" stroke="black" points="360.207,-75.5001 370.207,-72 360.207,-68.5001 360.207,-75.5001"/>
</g>
<!-- Tools -->
<g id="node11" class="node"><title>Tools</title>
<ellipse fill="lightsalmon" stroke="lightsalmon" cx="224.483" cy="-18" rx="32.4942" ry="18"/>
<text text-anchor="middle" x="224.483" y="-14.3" font-family="Times New Roman,serif" font-size="14.00">Tools</text>
</g>
<!-- Tools&#45;&gt;Common.Extensions -->
<g id="edge15" class="edge"><title>Tools&#45;&gt;Common.Extensions</title>
<path fill="none" stroke="black" d="M257.235,-18C276.817,-18 303.081,-18 329.044,-18"/>
<polygon fill="black" stroke="black" points="329.35,-21.5001 339.35,-18 329.35,-14.5001 329.35,-21.5001"/>
</g>
<!-- Tools&#45;&gt;Repositories -->
<g id="edge16" class="edge"><title>Tools&#45;&gt;Repositories</title>
<path fill="none" stroke="black" d="M254.194,-25.7369C285.188,-34.0894 335.226,-47.5737 373.304,-57.8349"/>
<polygon fill="black" stroke="black" points="372.637,-61.2799 383.203,-60.5026 374.459,-54.521 372.637,-61.2799"/>
</g>
<!-- Tools.Tests -->
<g id="node12" class="node"><title>Tools.Tests</title>
<ellipse fill="lightsalmon" stroke="lightsalmon" cx="54.5952" cy="-18" rx="54.6905" ry="18"/>
<text text-anchor="middle" x="54.5952" y="-14.3" font-family="Times New Roman,serif" font-size="14.00">Tools.Tests</text>
</g>
<!-- Tools.Tests&#45;&gt;Tools -->
<g id="edge17" class="edge"><title>Tools.Tests&#45;&gt;Tools</title>
<path fill="none" stroke="black" stroke-dasharray="5,2" d="M109.64,-18C132.871,-18 159.615,-18 181.343,-18"/>
<polygon fill="black" stroke="black" points="181.568,-21.5001 191.568,-18 181.568,-14.5001 181.568,-21.5001"/>
</g>
</g>
</svg>
