<?xml version="1.0" encoding="UTF-8" standalone="no"?>
<!DOCTYPE svg PUBLIC "-//W3C//DTD SVG 1.1//EN"
 "http://www.w3.org/Graphics/SVG/1.1/DTD/svg11.dtd">
<!-- Generated by graphviz version 2.38.0 (20140413.2041)
 -->
<!-- Title: G Pages: 1 -->
<svg width="1132pt" height="152pt"
 viewBox="0.00 0.00 1131.78 152.00" xmlns="http://www.w3.org/2000/svg" xmlns:xlink="http://www.w3.org/1999/xlink">
<g id="graph0" class="graph" transform="scale(1 1) rotate(0) translate(4 148)">
<title>G</title>
<polygon fill="white" stroke="none" points="-4,4 -4,-148 1127.78,-148 1127.78,4 -4,4"/>
<!-- Common.Extensions -->
<g id="node1" class="node"><title>Common.Extensions</title>
<polygon fill="gold" stroke="gold" points="473.776,-36 339.776,-36 339.776,-0 473.776,-0 473.776,-36"/>
<text text-anchor="middle" x="406.776" y="-14.3" font-family="Times New Roman,serif" font-size="14.00">Common.Extensions</text>
</g>
<!-- Common.Models -->
<g id="node2" class="node"><title>Common.Models</title>
<polygon fill="gold" stroke="gold" points="957.276,-63 842.276,-63 842.276,-27 957.276,-27 957.276,-63"/>
<text text-anchor="middle" x="899.776" y="-41.3" font-family="Times New Roman,serif" font-size="14.00">Common.Models</text>
</g>
<!-- Common.Extensions&#45;&gt;Common.Models -->
<g id="edge1" class="edge"><title>Common.Extensions&#45;&gt;Common.Models</title>
<path fill="none" stroke="black" d="M473.995,-21.6413C567.599,-26.7886 737.661,-36.1403 831.719,-41.3126"/>
<polygon fill="black" stroke="black" points="831.792,-44.8217 841.969,-41.8762 832.176,-37.8323 831.792,-44.8217"/>
</g>
<!-- Common.Interfaces -->
<g id="node3" class="node"><title>Common.Interfaces</title>
<polygon fill="gold" stroke="gold" points="1123.78,-90 995.776,-90 995.776,-54 1123.78,-54 1123.78,-90"/>
<text text-anchor="middle" x="1059.78" y="-68.3" font-family="Times New Roman,serif" font-size="14.00">Common.Interfaces</text>
</g>
<!-- Common.Models&#45;&gt;Common.Interfaces -->
<g id="edge2" class="edge"><title>Common.Models&#45;&gt;Common.Interfaces</title>
<path fill="none" stroke="black" d="M957.372,-54.6714C966.572,-56.2436 976.215,-57.8914 985.741,-59.5193"/>
<polygon fill="black" stroke="black" points="985.156,-62.9701 995.603,-61.2046 986.336,-56.0701 985.156,-62.9701"/>
</g>
<!-- Infrastructure.Interfaces -->
<g id="node4" class="node"><title>Infrastructure.Interfaces</title>
<polygon fill="gold" stroke="gold" points="659.776,-89 509.776,-89 509.776,-53 659.776,-53 659.776,-89"/>
<text text-anchor="middle" x="584.776" y="-67.3" font-family="Times New Roman,serif" font-size="14.00">Infrastructure.Interfaces</text>
</g>
<!-- Order.Interfaces -->
<g id="node5" class="node"><title>Order.Interfaces</title>
<polygon fill="gold" stroke="gold" points="803.776,-141 695.776,-141 695.776,-105 803.776,-105 803.776,-141"/>
<text text-anchor="middle" x="749.776" y="-119.3" font-family="Times New Roman,serif" font-size="14.00">Order.Interfaces</text>
</g>
<!-- Infrastructure.Interfaces&#45;&gt;Order.Interfaces -->
<g id="edge3" class="edge"><title>Infrastructure.Interfaces&#45;&gt;Order.Interfaces</title>
<path fill="none" stroke="black" d="M642.328,-89.0411C656.374,-93.5219 671.513,-98.3516 685.843,-102.923"/>
<polygon fill="black" stroke="black" points="685.021,-106.335 695.612,-106.04 687.149,-99.6658 685.021,-106.335"/>
</g>
<!-- Product.Interfaces -->
<g id="node8" class="node"><title>Product.Interfaces</title>
<polygon fill="gold" stroke="gold" points="959.776,-117 839.776,-117 839.776,-81 959.776,-81 959.776,-117"/>
<text text-anchor="middle" x="899.776" y="-95.3" font-family="Times New Roman,serif" font-size="14.00">Product.Interfaces</text>
</g>
<!-- Order.Interfaces&#45;&gt;Product.Interfaces -->
<g id="edge5" class="edge"><title>Order.Interfaces&#45;&gt;Product.Interfaces</title>
<path fill="none" stroke="black" d="M803.79,-114.403C812.136,-113.05 820.87,-111.633 829.518,-110.231"/>
<polygon fill="black" stroke="black" points="830.291,-113.652 839.601,-108.596 829.17,-106.742 830.291,-113.652"/>
</g>
<!-- Order.Extensions -->
<g id="node6" class="node"><title>Order.Extensions</title>
<polygon fill="gold" stroke="gold" points="463.776,-144 349.776,-144 349.776,-108 463.776,-108 463.776,-144"/>
<text text-anchor="middle" x="406.776" y="-122.3" font-family="Times New Roman,serif" font-size="14.00">Order.Extensions</text>
</g>
<!-- Order.Models -->
<g id="node7" class="node"><title>Order.Models</title>
<polygon fill="gold" stroke="gold" points="632.276,-143 537.276,-143 537.276,-107 632.276,-107 632.276,-143"/>
<text text-anchor="middle" x="584.776" y="-121.3" font-family="Times New Roman,serif" font-size="14.00">Order.Models</text>
</g>
<!-- Order.Extensions&#45;&gt;Order.Models -->
<g id="edge4" class="edge"><title>Order.Extensions&#45;&gt;Order.Models</title>
<path fill="none" stroke="black" d="M463.948,-125.681C484.172,-125.566 506.988,-125.436 527.243,-125.321"/>
<polygon fill="black" stroke="black" points="527.285,-128.821 537.265,-125.264 527.246,-121.821 527.285,-128.821"/>
</g>
<!-- Order.Models&#45;&gt;Order.Interfaces -->
<g id="edge6" class="edge"><title>Order.Models&#45;&gt;Order.Interfaces</title>
<path fill="none" stroke="black" d="M632.485,-124.427C649,-124.224 667.861,-123.993 685.517,-123.776"/>
<polygon fill="black" stroke="black" points="685.791,-127.273 695.747,-123.651 685.705,-120.274 685.791,-127.273"/>
</g>
<!-- Product.Models -->
<g id="node9" class="node"><title>Product.Models</title>
<polygon fill="gold" stroke="gold" points="803.276,-87 696.276,-87 696.276,-51 803.276,-51 803.276,-87"/>
<text text-anchor="middle" x="749.776" y="-65.3" font-family="Times New Roman,serif" font-size="14.00">Product.Models</text>
</g>
<!-- Order.Models&#45;&gt;Product.Models -->
<g id="edge7" class="edge"><title>Order.Models&#45;&gt;Product.Models</title>
<path fill="none" stroke="black" d="M632.485,-108.953C649.313,-103.171 668.577,-96.5532 686.52,-90.3885"/>
<polygon fill="black" stroke="black" points="688.009,-93.5779 696.329,-87.0186 685.735,-86.9577 688.009,-93.5779"/>
</g>
<!-- Product.Interfaces&#45;&gt;Common.Interfaces -->
<g id="edge8" class="edge"><title>Product.Interfaces&#45;&gt;Common.Interfaces</title>
<path fill="none" stroke="black" d="M960.059,-88.8694C968.43,-87.439 977.116,-85.9546 985.708,-84.4864"/>
<polygon fill="black" stroke="black" points="986.459,-87.9088 995.727,-82.7743 985.28,-81.0089 986.459,-87.9088"/>
</g>
<!-- Product.Models&#45;&gt;Common.Models -->
<g id="edge9" class="edge"><title>Product.Models&#45;&gt;Common.Models</title>
<path fill="none" stroke="black" d="M803.372,-60.4709C812.684,-58.961 822.49,-57.3708 832.128,-55.8079"/>
<polygon fill="black" stroke="black" points="832.772,-59.2492 842.083,-54.1935 831.652,-52.3394 832.772,-59.2492"/>
</g>
<!-- Product.Models&#45;&gt;Product.Interfaces -->
<g id="edge10" class="edge"><title>Product.Models&#45;&gt;Product.Interfaces</title>
<path fill="none" stroke="black" d="M803.372,-79.6613C811.884,-81.3867 820.809,-83.1958 829.641,-84.9861"/>
<polygon fill="black" stroke="black" points="829.051,-88.4375 839.547,-86.994 830.441,-81.577 829.051,-88.4375"/>
</g>
<!-- Repositories -->
<g id="node10" class="node"><title>Repositories</title>
<polygon fill="tomato" stroke="tomato" points="450.276,-90 363.276,-90 363.276,-54 450.276,-54 450.276,-90"/>
<text text-anchor="middle" x="406.776" y="-68.3" font-family="Times New Roman,serif" font-size="14.00">Repositories</text>
</g>
<!-- Repositories&#45;&gt;Infrastructure.Interfaces -->
<g id="edge11" class="edge"><title>Repositories&#45;&gt;Infrastructure.Interfaces</title>
<path fill="none" stroke="black" d="M450.381,-71.7579C465.263,-71.6734 482.531,-71.5753 499.607,-71.4782"/>
<polygon fill="black" stroke="black" points="499.639,-74.9782 509.619,-71.4214 499.599,-67.9783 499.639,-74.9782"/>
</g>
<!-- Repositories&#45;&gt;Order.Models -->
<g id="edge12" class="edge"><title>Repositories&#45;&gt;Order.Models</title>
<path fill="none" stroke="black" d="M450.381,-84.8298C473.552,-91.8076 502.506,-100.527 527.513,-108.057"/>
<polygon fill="black" stroke="black" points="526.655,-111.454 537.239,-110.986 528.673,-104.751 526.655,-111.454"/>
</g>
<!-- Repositories.Tests -->
<g id="node11" class="node"><title>Repositories.Tests</title>
<ellipse fill="tomato" stroke="tomato" cx="224.483" cy="-72" rx="79.0865" ry="18"/>
<text text-anchor="middle" x="224.483" y="-68.3" font-family="Times New Roman,serif" font-size="14.00">Repositories.Tests</text>
</g>
<!-- Repositories.Tests&#45;&gt;Common.Extensions -->
<g id="edge13" class="edge"><title>Repositories.Tests&#45;&gt;Common.Extensions</title>
<path fill="none" stroke="black" d="M273.325,-57.6708C292.418,-51.9523 314.784,-45.2532 335.645,-39.0052"/>
<polygon fill="black" stroke="black" points="336.849,-42.2984 345.424,-36.0762 334.84,-35.5927 336.849,-42.2984"/>
</g>
<!-- Repositories.Tests&#45;&gt;Repositories -->
<g id="edge14" class="edge"><title>Repositories.Tests&#45;&gt;Repositories</title>
<path fill="none" stroke="black" stroke-dasharray="5,2" d="M304.038,-72C320.537,-72 337.564,-72 352.856,-72"/>
<polygon fill="black" stroke="black" points="353.139,-75.5001 363.139,-72 353.139,-68.5001 353.139,-75.5001"/>
</g>
<!-- Tools -->
<g id="node12" class="node"><title>Tools</title>
<ellipse fill="plum" stroke="plum" cx="224.483" cy="-18" rx="32.4942" ry="18"/>
<text text-anchor="middle" x="224.483" y="-14.3" font-family="Times New Roman,serif" font-size="14.00">Tools</text>
</g>
<!-- Tools&#45;&gt;Common.Extensions -->
<g id="edge15" class="edge"><title>Tools&#45;&gt;Common.Extensions</title>
<path fill="none" stroke="black" d="M257.301,-18C277.292,-18 303.99,-18 329.232,-18"/>
<polygon fill="black" stroke="black" points="329.561,-21.5001 339.561,-18 329.561,-14.5001 329.561,-21.5001"/>
</g>
<!-- Tools&#45;&gt;Repositories -->
<g id="edge16" class="edge"><title>Tools&#45;&gt;Repositories</title>
<path fill="none" stroke="black" d="M253.654,-26.4375C280.221,-34.3946 320.707,-46.5207 353.234,-56.263"/>
<polygon fill="black" stroke="black" points="352.466,-59.6863 363.049,-59.2028 354.474,-52.9806 352.466,-59.6863"/>
</g>
<!-- Tools.Tests -->
<g id="node13" class="node"><title>Tools.Tests</title>
<ellipse fill="plum" stroke="plum" cx="54.5952" cy="-70" rx="54.6905" ry="18"/>
<text text-anchor="middle" x="54.5952" y="-66.3" font-family="Times New Roman,serif" font-size="14.00">Tools.Tests</text>
</g>
<!-- Tools.Tests&#45;&gt;Order.Extensions -->
<g id="edge17" class="edge"><title>Tools.Tests&#45;&gt;Order.Extensions</title>
<path fill="none" stroke="black" d="M91.3108,-83.4636C107.539,-89.0847 127.114,-95.1824 145.19,-99 210.378,-112.767 286.284,-119.62 339.3,-122.963"/>
<polygon fill="black" stroke="black" points="339.395,-126.475 349.588,-123.585 339.818,-119.488 339.395,-126.475"/>
</g>
<!-- Tools.Tests&#45;&gt;Tools -->
<g id="edge18" class="edge"><title>Tools.Tests&#45;&gt;Tools</title>
<path fill="none" stroke="black" stroke-dasharray="5,2" d="M94.9575,-57.8083C122.372,-49.3171 158.724,-38.0578 185.771,-29.6807"/>
<polygon fill="black" stroke="black" points="187.126,-32.925 195.643,-26.623 185.055,-26.2384 187.126,-32.925"/>
</g>
</g>
</svg>
