<?xml version="1.0" encoding="UTF-8" standalone="no"?>
<!DOCTYPE svg PUBLIC "-//W3C//DTD SVG 1.1//EN"
 "http://www.w3.org/Graphics/SVG/1.1/DTD/svg11.dtd">
<!-- Generated by graphviz version 2.38.0 (20140413.2041)
 -->
<!-- Title: G Pages: 1 -->
<svg width="1179pt" height="144pt"
 viewBox="0.00 0.00 1178.51 144.00" xmlns="http://www.w3.org/2000/svg" xmlns:xlink="http://www.w3.org/1999/xlink">
<g id="graph0" class="graph" transform="scale(1 1) rotate(0) translate(4 140)">
<title>G</title>
<polygon fill="white" stroke="none" points="-4,4 -4,-140 1174.51,-140 1174.51,4 -4,4"/>
<!-- Common.Extensions -->
<g id="node1" class="node"><title>Common.Extensions</title>
<ellipse fill="grey" stroke="grey" cx="281.678" cy="-118" rx="87.1846" ry="18"/>
<text text-anchor="middle" x="281.678" y="-114.3" font-family="Times New Roman,serif" font-size="14.00">Common.Extensions</text>
</g>
<!-- Common.Models -->
<g id="node2" class="node"><title>Common.Models</title>
<ellipse fill="grey" stroke="grey" cx="890.134" cy="-95" rx="74.9875" ry="18"/>
<text text-anchor="middle" x="890.134" y="-91.3" font-family="Times New Roman,serif" font-size="14.00">Common.Models</text>
</g>
<!-- Common.Extensions&#45;&gt;Common.Models -->
<g id="edge1" class="edge"><title>Common.Extensions&#45;&gt;Common.Models</title>
<path fill="none" stroke="black" d="M367.642,-114.778C483.774,-110.373 690.769,-102.523 805.959,-98.1544"/>
<polygon fill="black" stroke="black" points="806.273,-101.645 816.133,-97.7686 806.008,-94.6502 806.273,-101.645"/>
</g>
<!-- Common.Interfaces -->
<g id="node3" class="node"><title>Common.Interfaces</title>
<ellipse fill="grey" stroke="grey" cx="1087.32" cy="-68" rx="83.3857" ry="18"/>
<text text-anchor="middle" x="1087.32" y="-64.3" font-family="Times New Roman,serif" font-size="14.00">Common.Interfaces</text>
</g>
<!-- Common.Models&#45;&gt;Common.Interfaces -->
<g id="edge2" class="edge"><title>Common.Models&#45;&gt;Common.Interfaces</title>
<path fill="none" stroke="black" d="M955.315,-86.1218C971.755,-83.8476 989.634,-81.3745 1006.75,-79.0072"/>
<polygon fill="black" stroke="black" points="1007.29,-82.4653 1016.72,-77.628 1006.33,-75.5313 1007.29,-82.4653"/>
</g>
<!-- Infrastructure.Interfaces -->
<g id="node4" class="node"><title>Infrastructure.Interfaces</title>
<ellipse fill="grey" stroke="grey" cx="502.262" cy="-18" rx="97.4827" ry="18"/>
<text text-anchor="middle" x="502.262" y="-14.3" font-family="Times New Roman,serif" font-size="14.00">Infrastructure.Interfaces</text>
</g>
<!-- Order.Interfaces -->
<g id="node5" class="node"><title>Order.Interfaces</title>
<ellipse fill="grey" stroke="grey" cx="705.947" cy="-18" rx="70.3881" ry="18"/>
<text text-anchor="middle" x="705.947" y="-14.3" font-family="Times New Roman,serif" font-size="14.00">Order.Interfaces</text>
</g>
<!-- Infrastructure.Interfaces&#45;&gt;Order.Interfaces -->
<g id="edge3" class="edge"><title>Infrastructure.Interfaces&#45;&gt;Order.Interfaces</title>
<path fill="none" stroke="black" d="M599.969,-18C608.522,-18 617.115,-18 625.501,-18"/>
<polygon fill="black" stroke="black" points="625.61,-21.5001 635.61,-18 625.61,-14.5001 625.61,-21.5001"/>
</g>
<!-- Product.Interfaces -->
<g id="node6" class="node"><title>Product.Interfaces</title>
<ellipse fill="grey" stroke="grey" cx="890.134" cy="-41" rx="77.9862" ry="18"/>
<text text-anchor="middle" x="890.134" y="-37.3" font-family="Times New Roman,serif" font-size="14.00">Product.Interfaces</text>
</g>
<!-- Order.Interfaces&#45;&gt;Product.Interfaces -->
<g id="edge4" class="edge"><title>Order.Interfaces&#45;&gt;Product.Interfaces</title>
<path fill="none" stroke="black" d="M769.136,-25.851C782.656,-27.5579 797.125,-29.3844 811.168,-31.1573"/>
<polygon fill="black" stroke="black" points="810.94,-34.6561 821.299,-32.4363 811.816,-27.7113 810.94,-34.6561"/>
</g>
<!-- Product.Interfaces&#45;&gt;Common.Interfaces -->
<g id="edge7" class="edge"><title>Product.Interfaces&#45;&gt;Common.Interfaces</title>
<path fill="none" stroke="black" d="M957.487,-50.1786C973.32,-52.3689 990.38,-54.7287 1006.74,-56.9918"/>
<polygon fill="black" stroke="black" points="1006.43,-60.4826 1016.82,-58.386 1007.39,-53.5487 1006.43,-60.4826"/>
</g>
<!-- Order.Models -->
<g id="node7" class="node"><title>Order.Models</title>
<ellipse fill="grey" stroke="grey" cx="502.262" cy="-72" rx="61.99" ry="18"/>
<text text-anchor="middle" x="502.262" y="-68.3" font-family="Times New Roman,serif" font-size="14.00">Order.Models</text>
</g>
<!-- Order.Models&#45;&gt;Order.Interfaces -->
<g id="edge5" class="edge"><title>Order.Models&#45;&gt;Order.Interfaces</title>
<path fill="none" stroke="black" d="M548.273,-59.9486C577.291,-52.1791 615.316,-41.9982 646.638,-33.612"/>
<polygon fill="black" stroke="black" points="647.797,-36.9249 656.552,-30.9576 645.987,-30.1631 647.797,-36.9249"/>
</g>
<!-- Product.Models -->
<g id="node8" class="node"><title>Product.Models</title>
<ellipse fill="grey" stroke="grey" cx="705.947" cy="-72" rx="69.5877" ry="18"/>
<text text-anchor="middle" x="705.947" y="-68.3" font-family="Times New Roman,serif" font-size="14.00">Product.Models</text>
</g>
<!-- Order.Models&#45;&gt;Product.Models -->
<g id="edge6" class="edge"><title>Order.Models&#45;&gt;Product.Models</title>
<path fill="none" stroke="black" d="M564.048,-72C583.584,-72 605.515,-72 626.152,-72"/>
<polygon fill="black" stroke="black" points="626.162,-75.5001 636.162,-72 626.162,-68.5001 626.162,-75.5001"/>
</g>
<!-- Product.Models&#45;&gt;Common.Models -->
<g id="edge8" class="edge"><title>Product.Models&#45;&gt;Common.Models</title>
<path fill="none" stroke="black" d="M768.881,-79.8188C783.214,-81.6282 798.623,-83.5735 813.468,-85.4477"/>
<polygon fill="black" stroke="black" points="813.276,-88.9512 823.636,-86.7313 814.153,-82.0063 813.276,-88.9512"/>
</g>
<!-- Product.Models&#45;&gt;Product.Interfaces -->
<g id="edge9" class="edge"><title>Product.Models&#45;&gt;Product.Interfaces</title>
<path fill="none" stroke="black" d="M764.592,-62.1914C781.15,-59.3741 799.419,-56.2654 816.745,-53.3173"/>
<polygon fill="black" stroke="black" points="817.546,-56.7313 826.818,-51.6034 816.372,-49.8305 817.546,-56.7313"/>
</g>
<!-- Repositories -->
<g id="node9" class="node"><title>Repositories</title>
<ellipse fill="cyan" stroke="cyan" cx="281.678" cy="-64" rx="56.59" ry="18"/>
<text text-anchor="middle" x="281.678" y="-60.3" font-family="Times New Roman,serif" font-size="14.00">Repositories</text>
</g>
<!-- Repositories&#45;&gt;Infrastructure.Interfaces -->
<g id="edge10" class="edge"><title>Repositories&#45;&gt;Infrastructure.Interfaces</title>
<path fill="none" stroke="black" d="M329.302,-54.1883C357.822,-48.1862 394.942,-40.3745 427.392,-33.5457"/>
<polygon fill="black" stroke="black" points="428.232,-36.9455 437.297,-31.4611 426.791,-30.0955 428.232,-36.9455"/>
</g>
<!-- Repositories&#45;&gt;Order.Models -->
<g id="edge11" class="edge"><title>Repositories&#45;&gt;Order.Models</title>
<path fill="none" stroke="black" d="M338.119,-66.0291C366.3,-67.0605 400.85,-68.325 430.888,-69.4244"/>
<polygon fill="black" stroke="black" points="430.765,-72.9221 440.886,-69.7903 431.021,-65.9268 430.765,-72.9221"/>
</g>
<!-- Repositories.Tests -->
<g id="node10" class="node"><title>Repositories.Tests</title>
<ellipse fill="lightcyan" stroke="lightcyan" cx="79.293" cy="-118" rx="79.0865" ry="18"/>
<text text-anchor="middle" x="79.293" y="-114.3" font-family="Times New Roman,serif" font-size="14.00">Repositories.Tests</text>
</g>
<!-- Repositories.Tests&#45;&gt;Common.Extensions -->
<g id="edge12" class="edge"><title>Repositories.Tests&#45;&gt;Common.Extensions</title>
<path fill="none" stroke="black" d="M158.628,-118C167.07,-118 175.73,-118 184.351,-118"/>
<polygon fill="black" stroke="black" points="184.439,-121.5 194.439,-118 184.439,-114.5 184.439,-121.5"/>
</g>
<!-- Repositories.Tests&#45;&gt;Repositories -->
<g id="edge13" class="edge"><title>Repositories.Tests&#45;&gt;Repositories</title>
<path fill="none" stroke="black" stroke-dasharray="5,2" d="M131.118,-104.304C160.807,-96.303 198.207,-86.2245 228.179,-78.1474"/>
<polygon fill="black" stroke="black" points="229.293,-81.4724 238.037,-75.4909 227.471,-74.7135 229.293,-81.4724"/>
</g>
<!-- Tools -->
<g id="node11" class="node"><title>Tools</title>
<ellipse fill="lightsalmon" stroke="lightsalmon" cx="79.293" cy="-64" rx="32.4942" ry="18"/>
<text text-anchor="middle" x="79.293" y="-60.3" font-family="Times New Roman,serif" font-size="14.00">Tools</text>
</g>
<!-- Tools&#45;&gt;Common.Extensions -->
<g id="edge14" class="edge"><title>Tools&#45;&gt;Common.Extensions</title>
<path fill="none" stroke="black" d="M109.003,-71.7369C137.294,-79.3607 181.451,-91.2602 217.896,-101.081"/>
<polygon fill="black" stroke="black" points="217.385,-104.569 227.952,-103.791 219.207,-97.8097 217.385,-104.569"/>
</g>
<!-- Tools&#45;&gt;Repositories -->
<g id="edge15" class="edge"><title>Tools&#45;&gt;Repositories</title>
<path fill="none" stroke="black" d="M112.045,-64C139.566,-64 180.284,-64 214.815,-64"/>
<polygon fill="black" stroke="black" points="214.841,-67.5001 224.841,-64 214.841,-60.5001 214.841,-67.5001"/>
</g>
</g>
</svg>
